<svg width="98" height="98" viewBox="0 0 98 98" fill="none" xmlns="http://www.w3.org/2000/svg">
<path d="M91.9688 11.5H86.5V6.03125C86.4984 4.58134 85.9217 3.19127 84.8965 2.16603C83.8712 1.14079 82.4812 0.564103 81.0312 0.5625H16.9688C15.5188 0.564103 14.1288 1.14079 13.1035 2.16603C12.0783 3.19127 11.5016 4.58134 11.5 6.03125V11.5H6.03125C4.58134 11.5016 3.19127 12.0783 2.16603 13.1035C1.14079 14.1288 0.564103 15.5188 0.5625 16.9688V76.3438C0.564103 77.7937 1.14079 79.1837 2.16603 80.209C3.19127 81.2342 4.58134 81.8109 6.03125 81.8125H35.9902L33.7598 89.625H27.125C26.7106 89.625 26.3132 89.7896 26.0201 90.0826C25.7271 90.3757 25.5625 90.7731 25.5625 91.1875V95.875C25.5625 96.2894 25.7271 96.6868 26.0201 96.9799C26.3132 97.2729 26.7106 97.4375 27.125 97.4375H70.875C71.2894 97.4375 71.6868 97.2729 71.9799 96.9799C72.2729 96.6868 72.4375 96.2894 72.4375 95.875V91.1875C72.4375 90.7731 72.2729 90.3757 71.9799 90.0826C71.6868 89.7896 71.2894 89.625 70.875 89.625H64.2402L62.0098 81.8125H91.9688C93.4187 81.8109 94.8087 81.2342 95.834 80.209C96.8592 79.1837 97.4359 77.7937 97.4375 76.3438V16.9688C97.4359 15.5188 96.8592 14.1288 95.834 13.1035C94.8087 12.0783 93.4187 11.5016 91.9688 11.5ZM14.625 6.03125C14.6255 5.40981 14.8726 4.81397 15.312 4.37454C15.7515 3.93511 16.3473 3.68802 16.9688 3.6875H81.0312C81.6527 3.68802 82.2485 3.93511 82.688 4.37454C83.1274 4.81397 83.3745 5.40981 83.375 6.03125V9.9375H14.625V6.03125ZM14.625 13.0625H83.375V60.7188C83.3745 61.3402 83.1274 61.936 82.688 62.3755C82.2485 62.8149 81.6527 63.062 81.0312 63.0625H52.125V50.5625C52.123 48.9342 51.4865 47.3708 50.3506 46.2042C49.2146 45.0376 47.6687 44.3597 46.041 44.3145L39.625 43.0313V42.0957C41.017 41.4866 42.2015 40.4853 43.0339 39.2141C43.8663 37.943 44.3106 36.4569 44.3125 34.9375V28.6875C44.3104 26.6161 43.4867 24.6302 42.022 23.1655C40.5573 21.7008 38.5714 20.8771 36.5 20.875H33.375C31.3036 20.8771 29.3177 21.7008 27.853 23.1655C26.3883 24.6302 25.5646 26.6161 25.5625 28.6875V34.9375C25.5644 36.4569 26.0087 37.943 26.8411 39.2141C27.6735 40.4853 28.858 41.4866 30.25 42.0957V43.0313L23.834 44.3145C22.2063 44.3597 20.6604 45.0376 19.5244 46.2042C18.3885 47.3708 17.752 48.9342 17.75 50.5625V63.0625H16.9688C16.3473 63.062 15.7515 62.8149 15.312 62.3755C14.8726 61.936 14.6255 61.3402 14.625 60.7188V13.0625ZM44.3125 53.6875C43.8981 53.6875 43.5007 53.8521 43.2076 54.1451C42.9146 54.4382 42.75 54.8356 42.75 55.25V63.0625H27.125V55.25C27.125 54.8356 26.9604 54.4382 26.6674 54.1451C26.3743 53.8521 25.9769 53.6875 25.5625 53.6875C25.1481 53.6875 24.7507 53.8521 24.4576 54.1451C24.1646 54.4382 24 54.8356 24 55.25V63.0625H20.875V50.5625C20.8761 49.734 21.2057 48.9398 21.7915 48.354C22.3773 47.7682 23.1715 47.4386 24 47.4375C24.103 47.4378 24.2058 47.4274 24.3066 47.4062L30.623 46.1445C30.9827 46.9913 31.5835 47.7135 32.3507 48.2211C33.1179 48.7288 34.0175 48.9995 34.9375 48.9995C35.8575 48.9995 36.7571 48.7288 37.5243 48.2211C38.2915 47.7135 38.8923 46.9913 39.252 46.1445L45.5684 47.4062C45.6692 47.4274 45.772 47.4378 45.875 47.4375C46.7035 47.4386 47.4977 47.7682 48.0835 48.354C48.6693 48.9398 48.9989 49.734 49 50.5625V63.0625H45.875V55.25C45.875 54.8356 45.7104 54.4382 45.4174 54.1451C45.1243 53.8521 44.7269 53.6875 44.3125 53.6875ZM41.1875 31.2129V34.9375C41.1858 36.1802 40.6915 37.3715 39.8127 38.2502C38.934 39.129 37.7427 39.6233 36.5 39.625H33.375C32.1323 39.6233 30.941 39.129 30.0623 38.2502C29.1835 37.3715 28.6892 36.1802 28.6875 34.9375V33.3379C31.4004 33.2324 37.0586 32.8203 41.1875 31.2129ZM28.6875 30.2129V28.6875C28.6892 27.4448 29.1835 26.2535 30.0623 25.3748C30.941 24.496 32.1323 24.0017 33.375 24H36.5C37.595 24.0017 38.655 24.3859 39.4967 25.0864C40.3384 25.7869 40.9088 26.7594 41.1094 27.8359C37.8594 29.4961 32.0469 30.0742 28.6875 30.2129ZM36.5 42.75V44.3125C36.5 44.7269 36.3354 45.1243 36.0424 45.4174C35.7493 45.7104 35.3519 45.875 34.9375 45.875C34.5231 45.875 34.1257 45.7104 33.8326 45.4174C33.5396 45.1243 33.375 44.7269 33.375 44.3125V42.75H36.5ZM69.3125 92.75V94.3125H28.6875V92.75H69.3125ZM37.0098 89.625L39.2402 81.8125H58.7598L60.9902 89.625H37.0098ZM94.3125 76.3438C94.312 76.9652 94.0649 77.561 93.6255 78.0005C93.186 78.4399 92.5902 78.687 91.9688 78.6875H6.03125C5.40981 78.687 4.81397 78.4399 4.37454 78.0005C3.93511 77.561 3.68802 76.9652 3.6875 76.3438V72.4375H94.3125V76.3438ZM94.3125 69.3125H3.6875V16.9688C3.68802 16.3473 3.93511 15.7515 4.37454 15.312C4.81397 14.8726 5.40981 14.6255 6.03125 14.625H11.5V60.7188C11.5016 62.1687 12.0783 63.5587 13.1035 64.584C14.1288 65.6092 15.5188 66.1859 16.9688 66.1875H81.0312C82.4812 66.1859 83.8712 65.6092 84.8965 64.584C85.9217 63.5587 86.4984 62.1687 86.5 60.7188V14.625H91.9688C92.5902 14.6255 93.186 14.8726 93.6255 15.312C94.0649 15.7515 94.312 16.3473 94.3125 16.9688V69.3125Z" fill="black"/>
<path d="M17.75 8.375H19.3125C19.7269 8.375 20.1243 8.21038 20.4174 7.91735C20.7104 7.62433 20.875 7.2269 20.875 6.8125C20.875 6.3981 20.7104 6.00067 20.4174 5.70765C20.1243 5.41462 19.7269 5.25 19.3125 5.25H17.75C17.3356 5.25 16.9382 5.41462 16.6451 5.70765C16.3521 6.00067 16.1875 6.3981 16.1875 6.8125C16.1875 7.2269 16.3521 7.62433 16.6451 7.91735C16.9382 8.21038 17.3356 8.375 17.75 8.375V8.375Z" fill="black"/>
<path d="M24 8.375H25.5625C25.9769 8.375 26.3743 8.21038 26.6674 7.91735C26.9604 7.62433 27.125 7.2269 27.125 6.8125C27.125 6.3981 26.9604 6.00067 26.6674 5.70765C26.3743 5.41462 25.9769 5.25 25.5625 5.25H24C23.5856 5.25 23.1882 5.41462 22.8951 5.70765C22.6021 6.00067 22.4375 6.3981 22.4375 6.8125C22.4375 7.2269 22.6021 7.62433 22.8951 7.91735C23.1882 8.21038 23.5856 8.375 24 8.375V8.375Z" fill="black"/>
<path d="M30.25 8.375H31.8125C32.2269 8.375 32.6243 8.21038 32.9174 7.91735C33.2104 7.62433 33.375 7.2269 33.375 6.8125C33.375 6.3981 33.2104 6.00067 32.9174 5.70765C32.6243 5.41462 32.2269 5.25 31.8125 5.25H30.25C29.8356 5.25 29.4382 5.41462 29.1451 5.70765C28.8521 6.00067 28.6875 6.3981 28.6875 6.8125C28.6875 7.2269 28.8521 7.62433 29.1451 7.91735C29.4382 8.21038 29.8356 8.375 30.25 8.375Z" fill="black"/>
<path d="M80.25 14.625H55.25C54.8356 14.625 54.4382 14.7896 54.1451 15.0826C53.8521 15.3757 53.6875 15.7731 53.6875 16.1875V42.75C53.6875 43.1644 53.8521 43.5618 54.1451 43.8549C54.4382 44.1479 54.8356 44.3125 55.25 44.3125H80.25C80.6644 44.3125 81.0618 44.1479 81.3549 43.8549C81.6479 43.5618 81.8125 43.1644 81.8125 42.75V16.1875C81.8125 15.7731 81.6479 15.3757 81.3549 15.0826C81.0618 14.7896 80.6644 14.625 80.25 14.625ZM74 41.1875H61.5V39.2344C61.5013 38.0952 61.9545 37.003 62.76 36.1975C63.5655 35.392 64.6577 34.9388 65.7969 34.9375H69.7031C70.8423 34.9388 71.9345 35.392 72.74 36.1975C73.5455 37.003 73.9987 38.0952 74 39.2344V41.1875ZM64.625 27.9062V24.7812C64.6255 24.1598 64.8726 23.564 65.312 23.1245C65.7515 22.6851 66.3473 22.438 66.9688 22.4375H68.5312C69.1527 22.438 69.7485 22.6851 70.188 23.1245C70.6274 23.564 70.8745 24.1598 70.875 24.7812V27.9062C70.8745 28.5277 70.6274 29.1235 70.188 29.563C69.7485 30.0024 69.1527 30.2495 68.5312 30.25H66.9688C66.3473 30.2495 65.7515 30.0024 65.312 29.563C64.8726 29.1235 64.6255 28.5277 64.625 27.9062V27.9062ZM78.6875 41.1875H77.125V39.2344C77.123 37.6608 76.6217 36.1285 75.6934 34.8579C74.765 33.5874 73.4575 32.6442 71.959 32.1641C72.5958 31.652 73.1097 31.0037 73.4629 30.2669C73.8161 29.53 73.9996 28.7234 74 27.9062V24.7812C73.9984 23.3313 73.4217 21.9413 72.3965 20.916C71.3712 19.8908 69.9812 19.3141 68.5312 19.3125H66.9688C65.5188 19.3141 64.1288 19.8908 63.1035 20.916C62.0783 21.9413 61.5016 23.3313 61.5 24.7812V27.9062C61.5004 28.7234 61.6839 29.53 62.0371 30.2669C62.3903 31.0037 62.9042 31.652 63.541 32.1641C62.0425 32.6442 60.735 33.5874 59.8066 34.8579C58.8783 36.1285 58.377 37.6608 58.375 39.2344V41.1875H56.8125V17.75H78.6875V41.1875Z" fill="black"/>
</svg>
