<svg width="119" height="90" viewBox="0 0 119 90" fill="none" xmlns="http://www.w3.org/2000/svg">
<path d="M23.4581 89.5432H1.62581C0.727742 89.5432 0 88.8155 0 87.9174V9.00386C0 8.10579 0.727742 7.37805 1.62581 7.37805H23.4581C24.3561 7.37805 25.0839 8.10579 25.0839 9.00386V87.9174C25.0839 88.8155 24.3561 89.5432 23.4581 89.5432ZM3.25161 86.2916H21.8323V10.6297H3.25161V86.2916Z" fill="black"/>
<path d="M23.4581 25.6103H1.62581C0.727742 25.6103 0 24.8825 0 23.9844C0 23.0864 0.727742 22.3586 1.62581 22.3586H23.4581C24.3561 22.3586 25.0839 23.0864 25.0839 23.9844C25.0839 24.8825 24.3561 25.6103 23.4581 25.6103Z" fill="black"/>
<path d="M23.4581 35.6283H1.62581C0.727742 35.6283 0 34.9006 0 34.0025C0 33.1045 0.727742 32.3767 1.62581 32.3767H23.4581C24.3561 32.3767 25.0839 33.1045 25.0839 34.0025C25.0839 34.9006 24.3561 35.6283 23.4581 35.6283Z" fill="black"/>
<path d="M16.7303 67.1535H8.35353C7.45546 67.1535 6.72772 66.4257 6.72772 65.5277C6.72772 64.6296 7.45546 63.9019 8.35353 63.9019H16.7303C17.6284 63.9019 18.3561 64.6296 18.3561 65.5277C18.3561 66.4257 17.6284 67.1535 16.7303 67.1535Z" fill="black"/>
<path d="M96.5728 89.5433C95.9303 89.5433 95.3187 89.1562 95.0632 88.5214L65.6129 15.3059C65.28 14.4697 65.6825 13.5252 66.5109 13.1923L86.7638 5.04779C87.1664 4.88521 87.6077 4.89295 88.0103 5.06328C88.4051 5.2336 88.7225 5.55102 88.8774 5.9536L118.328 79.1691C118.49 79.5717 118.483 80.013 118.312 80.4155C118.142 80.8104 117.824 81.1278 117.422 81.2826L97.169 89.4272C96.9832 89.5046 96.7741 89.5433 96.5728 89.5433V89.5433ZM69.2361 15.6078L97.4709 85.8039L114.704 78.8672L86.4696 8.67102L69.2361 15.6078Z" fill="black"/>
<path d="M72.7122 30.2245C72.0696 30.2245 71.458 29.8374 71.2025 29.2026C70.8696 28.3665 71.2722 27.4219 72.1006 27.089L92.3612 18.9445C93.1974 18.6116 94.1419 19.0142 94.4748 19.8426C94.8077 20.6787 94.4051 21.6232 93.5767 21.9561L73.3161 30.1084C73.1148 30.1858 72.9135 30.2245 72.7122 30.2245Z" fill="black"/>
<path d="M76.4516 39.5226C75.809 39.5226 75.1974 39.1355 74.9419 38.5007C74.609 37.6646 75.0116 36.72 75.84 36.3871L96.0929 28.2426C96.929 27.9097 97.8735 28.3123 98.2064 29.1407C98.5393 29.9768 98.1367 30.9213 97.3084 31.2542L77.0554 39.3987C76.8542 39.4839 76.6529 39.5226 76.4516 39.5226V39.5226Z" fill="black"/>
<path d="M95.4038 65.8761C94.7613 65.8761 94.1497 65.489 93.8942 64.8542C93.5613 64.0181 93.9638 63.0735 94.7922 62.7406L100.661 60.3793C101.497 60.0464 102.441 60.449 102.774 61.2774C103.107 62.1135 102.704 63.0581 101.876 63.391L96.0077 65.7523C95.8142 65.8374 95.6051 65.8761 95.4038 65.8761Z" fill="black"/>
<path d="M45.2903 20.3845H23.4581C22.56 20.3845 21.8323 19.6568 21.8323 18.7587C21.8323 17.8607 22.56 17.1329 23.4581 17.1329H45.2903C46.1884 17.1329 46.9161 17.8607 46.9161 18.7587C46.9161 19.6568 46.1884 20.3845 45.2903 20.3845Z" fill="black"/>
<path d="M38.5626 66.4103H30.1858C29.2877 66.4103 28.56 65.6826 28.56 64.7845C28.56 63.8864 29.2877 63.1587 30.1858 63.1587H38.5626C39.4606 63.1587 40.1884 63.8864 40.1884 64.7845C40.1884 65.6826 39.4606 66.4103 38.5626 66.4103Z" fill="black"/>
<path d="M38.5626 75.9639H30.1858C29.2877 75.9639 28.56 75.2362 28.56 74.3381C28.56 73.44 29.2877 72.7123 30.1858 72.7123H38.5626C39.4606 72.7123 40.1884 73.44 40.1884 74.3381C40.1884 75.2362 39.4606 75.9639 38.5626 75.9639Z" fill="black"/>
<path d="M38.5626 52.8232H30.1858C29.2877 52.8232 28.56 52.0955 28.56 51.1974V28.9858C28.56 28.0877 29.2877 27.36 30.1858 27.36H38.5626C39.4606 27.36 40.1884 28.0877 40.1884 28.9858V51.1974C40.1884 52.0955 39.4606 52.8232 38.5626 52.8232ZM31.8116 49.5716H36.9368V30.6116H31.8116V49.5716Z" fill="black"/>
<path d="M67.1225 89.5432H45.2903C44.3922 89.5432 43.6645 88.8155 43.6645 87.9174V1.62581C43.6645 0.727742 44.3922 0 45.2903 0H67.1225C68.0206 0 68.7484 0.727742 68.7484 1.62581V87.9252C68.7484 88.8155 68.0206 89.5432 67.1225 89.5432V89.5432ZM46.9161 86.2916H65.4967V3.25161H46.9161V86.2916Z" fill="black"/>
<path d="M67.1225 17.7445H45.2903C44.3922 17.7445 43.6645 17.0168 43.6645 16.1187C43.6645 15.2207 44.3922 14.4929 45.2903 14.4929H67.1225C68.0206 14.4929 68.7484 15.2207 68.7484 16.1187C68.7484 17.0168 68.0206 17.7445 67.1225 17.7445Z" fill="black"/>
<path d="M67.1225 27.7626H45.2903C44.3922 27.7626 43.6645 27.0349 43.6645 26.1368C43.6645 25.2387 44.3922 24.511 45.2903 24.511H67.1225C68.0206 24.511 68.7483 25.2387 68.7483 26.1368C68.7483 27.0349 68.0206 27.7626 67.1225 27.7626Z" fill="black"/>
<path d="M45.2903 89.5431H23.4581C22.56 89.5431 21.8323 88.8154 21.8323 87.9173C21.8323 87.0192 22.56 86.2915 23.4581 86.2915H45.2903C46.1884 86.2915 46.9161 87.0192 46.9161 87.9173C46.9161 88.8154 46.1884 89.5431 45.2903 89.5431Z" fill="black"/>
<path d="M60.3947 64.8466H52.018C51.1199 64.8466 50.3922 64.1188 50.3922 63.2208C50.3922 62.3227 51.1199 61.595 52.018 61.595H60.3947C61.2928 61.595 62.0205 62.3227 62.0205 63.2208C62.0205 64.1188 61.2928 64.8466 60.3947 64.8466Z" fill="black"/>
<path d="M60.3947 74.4001H52.018C51.1199 74.4001 50.3922 73.6723 50.3922 72.7742C50.3922 71.8762 51.1199 71.1484 52.018 71.1484H60.3947C61.2928 71.1484 62.0205 71.8762 62.0205 72.7742C62.0205 73.6723 61.2928 74.4001 60.3947 74.4001Z" fill="black"/>
<path d="M56.2064 51.5071C52.9393 51.5071 50.2838 48.8517 50.2838 45.5846C50.2838 42.3175 52.9393 39.662 56.2064 39.662C59.4735 39.662 62.129 42.3175 62.129 45.5846C62.129 48.8517 59.4735 51.5071 56.2064 51.5071ZM56.2064 42.9136C54.7354 42.9136 53.5354 44.1136 53.5354 45.5846C53.5354 47.0555 54.7354 48.2555 56.2064 48.2555C57.6774 48.2555 58.8774 47.0555 58.8774 45.5846C58.8774 44.1136 57.6774 42.9136 56.2064 42.9136Z" fill="black"/>
</svg>
