<svg width="110" height="105" viewBox="0 0 110 105" fill="none" xmlns="http://www.w3.org/2000/svg">
<path d="M83.0462 104.341C81.6228 104.342 80.2207 103.995 78.9625 103.329L55.5887 91.0438C55.4076 90.9469 55.2054 90.8963 55 90.8963C54.7946 90.8963 54.5924 90.9469 54.4112 91.0438L31.0412 103.329C29.593 104.091 27.9604 104.432 26.3282 104.315C24.6959 104.197 23.1291 103.625 21.8051 102.663C20.4812 101.701 19.4528 100.388 18.8364 98.8721C18.2201 97.3561 18.0403 95.6979 18.3175 94.085L22.78 68.0638C22.8143 67.8599 22.798 67.6507 22.7326 67.4546C22.6673 67.2584 22.5548 67.0813 22.405 66.9388L3.5125 48.5C2.33951 47.3572 1.51003 45.9087 1.11806 44.3187C0.726089 42.7286 0.78729 41.0606 1.29473 39.5035C1.80217 37.9465 2.73556 36.5627 3.98914 35.5089C5.24273 34.4551 6.76639 33.7735 8.3875 33.5413L34.4987 29.75C34.7019 29.7205 34.8948 29.6418 35.0608 29.521C35.2268 29.4001 35.3608 29.2406 35.4512 29.0563L47.125 5.37503C47.8481 3.90698 48.9677 2.67071 50.3572 1.80621C51.7467 0.941713 53.3504 0.483521 54.9869 0.483521C56.6233 0.483521 58.2271 0.941713 59.6166 1.80621C61.006 2.67071 62.1257 3.90698 62.8487 5.37503L74.53 29.0488C74.6212 29.2325 74.7555 29.3915 74.9213 29.5123C75.0871 29.6331 75.2796 29.7121 75.4825 29.7425L101.616 33.5375C103.237 33.7711 104.759 34.4534 106.012 35.5073C107.265 36.5613 108.197 37.9447 108.705 39.5012C109.212 41.0577 109.273 42.7251 108.882 44.3148C108.491 45.9044 107.663 47.3529 106.491 48.4963L87.58 66.9238C87.4308 67.0667 87.3186 67.2439 87.2533 67.4399C87.1879 67.6359 87.1714 67.8449 87.205 68.0488L91.6675 94.07C91.8822 95.3273 91.8203 96.6163 91.4862 97.8472C91.152 99.0782 90.5537 100.222 89.7328 101.198C88.9118 102.174 87.888 102.96 86.7327 103.5C85.5772 104.04 84.318 104.322 83.0425 104.326L83.0462 104.341ZM55 83.3938C56.4222 83.3935 57.8229 83.7411 59.08 84.4063L82.45 96.6875C82.6568 96.8058 82.8941 96.86 83.1317 96.8433C83.3694 96.8266 83.5967 96.7398 83.785 96.5938C83.9815 96.459 84.1341 96.2696 84.2241 96.049C84.3141 95.8284 84.3374 95.5863 84.2913 95.3525L79.825 69.3275C79.5864 67.9269 79.6911 66.4893 80.13 65.138C80.5689 63.7866 81.3289 62.5619 82.345 61.5688L101.256 43.1375C101.425 42.9722 101.544 42.763 101.601 42.5335C101.657 42.3039 101.648 42.0633 101.574 41.8386C101.501 41.614 101.366 41.4143 101.186 41.2622C101.005 41.11 100.785 41.0114 100.551 40.9775L74.4212 37.1788C73.0145 36.9751 71.6784 36.432 70.5285 35.5963C69.3786 34.7607 68.4494 33.6577 67.8213 32.3825L56.125 8.70503C56.0202 8.49314 55.8583 8.31476 55.6576 8.19004C55.4568 8.06531 55.2251 7.99922 54.9887 7.99922C54.7524 7.99922 54.5207 8.06531 54.3199 8.19004C54.1192 8.31476 53.9572 8.49314 53.8525 8.70503L42.1787 32.375C41.5502 33.6506 40.6205 34.754 39.4699 35.5896C38.3193 36.4253 36.9825 36.9682 35.575 37.1713L9.44875 40.9775C9.21441 41.0107 8.99409 41.109 8.81287 41.2612C8.63166 41.4134 8.49683 41.6135 8.42375 41.8386C8.35067 42.0637 8.34227 42.3048 8.39951 42.5345C8.45674 42.7641 8.57732 42.9731 8.7475 43.1375L27.655 61.5688C28.6711 62.5619 29.4311 63.7866 29.87 65.138C30.3089 66.4893 30.4136 67.9269 30.175 69.3275L25.7087 95.3525C25.6682 95.5863 25.6942 95.8268 25.7836 96.0466C25.873 96.2664 26.0224 96.4567 26.2146 96.5958C26.4069 96.7349 26.6343 96.8173 26.871 96.8335C27.1078 96.8497 27.3443 96.7991 27.5537 96.6875L50.92 84.4025C52.1779 83.74 53.5783 83.3938 55 83.3938Z" fill="black"/>
</svg>
