<svg width="100" height="100" viewBox="0 0 100 100" fill="none" xmlns="http://www.w3.org/2000/svg">
<g clip-path="url(#clip0)">
<path d="M39.757 67.3851L53.5676 25.9529C54.0791 24.4179 53.2496 22.7587 51.7146 22.247C50.1799 21.7355 48.5205 22.565 48.0088 24.1L34.1982 65.5322C33.6867 67.0672 34.5162 68.7263 36.0512 69.2381C36.3584 69.3404 36.6709 69.389 36.9779 69.389C38.2045 69.3892 39.3477 68.6129 39.757 67.3851Z" fill="black"/>
<path d="M60.4557 54.5319C65.3019 54.5319 69.2447 50.5891 69.2447 45.7428C69.2447 40.8965 65.3019 36.9537 60.4557 36.9537C55.6094 36.9537 51.6666 40.8965 51.6666 45.7428C51.6666 50.5891 55.6094 54.5319 60.4557 54.5319ZM60.4557 42.8131C62.0711 42.8131 63.3853 44.1274 63.3853 45.7428C63.3853 47.3582 62.0711 48.6725 60.4557 48.6725C58.8402 48.6725 57.526 47.3582 57.526 45.7428C57.526 44.1274 58.8402 42.8131 60.4557 42.8131Z" fill="black"/>
<path d="M27.31 36.9537C22.4637 36.9537 18.5209 40.8965 18.5209 45.7428C18.5209 50.5891 22.4637 54.5319 27.31 54.5319C32.1562 54.5319 36.099 50.5891 36.099 45.7428C36.099 40.8965 32.1564 36.9537 27.31 36.9537ZM27.31 48.6725C25.6945 48.6725 24.3803 47.3582 24.3803 45.7428C24.3803 44.1274 25.6945 42.8131 27.31 42.8131C28.9254 42.8131 30.2396 44.1274 30.2396 45.7428C30.2396 47.3582 28.9256 48.6725 27.31 48.6725Z" fill="black"/>
<path d="M99.4143 36.3283L89.198 22.7066L89.5967 19.917C89.727 19.0041 89.4201 18.083 88.768 17.4311L82.5531 11.2162L88.7678 5.00137C89.9119 3.85742 89.9119 2.00234 88.7678 0.858203C87.6238 -0.285742 85.7687 -0.285742 84.6246 0.858203L78.41 7.07305L72.1951 0.858203C71.5432 0.206055 70.6221 -0.0998047 69.7092 0.0294921L40.7066 4.17266C40.0791 4.2623 39.4977 4.55312 39.0494 5.00137L3.1416 40.9092C-1.04687 45.0975 -1.04687 51.9127 3.1416 56.101L33.525 86.4846C34.1465 87.106 34.827 87.6332 35.5471 88.0701V89.258C35.5471 95.1812 40.366 100 46.2893 100H89.258C95.1812 100 100 95.1812 100 89.258V38.0861C100 37.4523 99.7945 36.8354 99.4143 36.3283ZM7.28477 51.9578C5.38086 50.0539 5.38086 46.9562 7.28477 45.0523L42.5019 9.83516L69.0875 6.0373L74.2666 11.2164L70.1234 15.3596L68.0518 13.2879C66.9078 12.1439 65.0527 12.1439 63.9086 13.2879C62.7645 14.4318 62.7645 16.2869 63.9086 17.4311L72.1951 25.7176C72.7672 26.2896 73.517 26.5758 74.2666 26.5758C75.0162 26.5758 75.7662 26.2896 76.3381 25.7176C77.4822 24.5736 77.4822 22.7186 76.3381 21.5744L74.2664 19.5027L78.4096 15.3596L83.5887 20.5387L79.7906 47.1242L44.5736 82.3414C43.6514 83.2637 42.4252 83.7715 41.1209 83.7715C39.8166 83.7715 38.5904 83.2635 37.6682 82.3414L7.28477 51.9578ZM94.1408 89.258C94.1408 91.9504 91.9504 94.1408 89.258 94.1408H46.2893C43.7182 94.1408 41.6064 92.1432 41.4211 89.6186C44.0709 89.5451 46.6988 88.5025 48.7166 86.4846L84.6244 50.5768C85.0727 50.1285 85.3635 49.5471 85.4531 48.9195L88.026 30.9098L94.1408 39.0627V89.258Z" fill="black"/>
</g>
<defs>
<clipPath id="clip0">
<rect width="100" height="100" fill="white"/>
</clipPath>
</defs>
</svg>
